<svg width="24" height="24" viewBox="0 0 24 24" fill="none" xmlns="http://www.w3.org/2000/svg">
<g clip-path="url(#clip0_1165_20167)">
<path d="M23.0977 21.375H22.3803V7.21698H23.4804C23.6918 7.21698 23.863 7.04575 23.863 6.83433C23.863 6.62292 23.6918 6.45168 23.4804 6.45168H16.2339V3.67747H16.9035C17.1149 3.67747 17.2862 3.50624 17.2862 3.29482C17.2862 3.08341 17.1149 2.91217 16.9035 2.91217H12.4074V0.520593C12.4074 0.309177 12.2362 0.137939 12.0248 0.137939C11.8134 0.137939 11.6421 0.309177 11.6421 0.520593V2.91217H7.14603C6.93462 2.91217 6.76338 3.08341 6.76338 3.29482C6.76338 3.50624 6.93462 3.67747 7.14603 3.67747H7.81568V6.45168H0.569154C0.357738 6.45168 0.1865 6.62292 0.1865 6.83433C0.1865 7.04575 0.357738 7.21698 0.569154 7.21698H1.66928V21.375H0.903978C0.482092 21.375 0.138672 21.7184 0.138672 22.1403V23.097C0.138672 23.5188 0.482092 23.8623 0.903978 23.8623H23.0979C23.5197 23.8623 23.8632 23.5188 23.8632 23.097V22.1403C23.8632 21.7184 23.5196 21.375 23.0977 21.375ZM21.6149 7.21698V21.375H16.2578V7.21698H21.6149ZM15.4685 3.67747V21.3753H14.3205V14.4875C14.3205 14.0656 13.9771 13.7222 13.5552 13.7222H10.494C10.0721 13.7222 9.7287 14.0656 9.7287 14.4875V21.3753H8.58075V3.67747H15.4685ZM13.5552 21.3753H10.494V14.4875H13.5552V21.3753ZM2.43442 7.21723H7.79156V21.3753H2.43442V7.21723ZM23.0977 23.0974H0.903807V22.1408H23.0977V23.0974Z" fill="#393B44"/>
<path d="M18.1188 11.0194H19.7518C20.1737 11.0194 20.5171 10.676 20.5171 10.2541V9.15398C20.5171 8.73209 20.1737 8.38867 19.7518 8.38867H18.1188C17.6969 8.38867 17.3535 8.73209 17.3535 9.15398V10.2541C17.3535 10.676 17.6969 11.0194 18.1188 11.0194ZM18.1188 9.15398H19.7518V10.2541H18.1188V9.15398Z" fill="#393B44"/>
<path d="M18.1188 15.6112H19.7518C20.1737 15.6112 20.5171 15.2678 20.5171 14.8459V13.7458C20.5171 13.3239 20.1737 12.9805 19.7518 12.9805H18.1188C17.6969 12.9805 17.3535 13.3239 17.3535 13.7458V14.8459C17.3535 15.2678 17.6969 15.6112 18.1188 15.6112ZM18.1188 13.7458H19.7518V14.8459H18.1188V13.7458Z" fill="#393B44"/>
<path d="M11.1833 7.16883H12.8163C13.2381 7.16883 13.5816 6.82541 13.5816 6.40352V5.30339C13.5816 4.88151 13.2381 4.53809 12.8163 4.53809H11.1833C10.7614 4.53809 10.418 4.88151 10.418 5.30339V6.40352C10.418 6.82541 10.7614 7.16883 11.1833 7.16883ZM11.1833 5.30339H12.8163V6.40352H11.1833V5.30339Z" fill="#393B44"/>
<path d="M11.1833 11.7606H12.8163C13.2381 11.7606 13.5816 11.4172 13.5816 10.9953V9.89519C13.5816 9.4733 13.2381 9.12988 12.8163 9.12988H11.1833C10.7614 9.12988 10.418 9.4733 10.418 9.89519V10.9953C10.418 11.4172 10.7614 11.7606 11.1833 11.7606ZM11.1833 9.89519H12.8163V10.9953H11.1833V9.89519Z" fill="#393B44"/>
<path d="M18.1188 20.203H19.7518C20.1737 20.203 20.5171 19.8596 20.5171 19.4377V18.3376C20.5171 17.9157 20.1737 17.5723 19.7518 17.5723H18.1188C17.6969 17.5723 17.3535 17.9157 17.3535 18.3376V19.4377C17.3535 19.8596 17.6969 20.203 18.1188 20.203ZM18.1188 18.3376H19.7518V19.4377H18.1188V18.3376Z" fill="#393B44"/>
<path d="M5.92954 8.38867H4.29656C3.87467 8.38867 3.53125 8.73209 3.53125 9.15398V10.2541C3.53125 10.676 3.87467 11.0194 4.29656 11.0194H5.92954C6.35142 11.0194 6.69484 10.676 6.69484 10.2541V9.15398C6.69484 8.73209 6.35142 8.38867 5.92954 8.38867ZM5.92954 10.2541H4.29656V9.15398H5.92954V10.2541Z" fill="#393B44"/>
<path d="M5.92954 12.9805H4.29656C3.87467 12.9805 3.53125 13.3239 3.53125 13.7458V14.8459C3.53125 15.2678 3.87467 15.6112 4.29656 15.6112H5.92954C6.35142 15.6112 6.69484 15.2678 6.69484 14.8459V13.7458C6.69484 13.3239 6.35142 12.9805 5.92954 12.9805ZM5.92954 14.8459H4.29656V13.7458H5.92954V14.8459Z" fill="#393B44"/>
<path d="M5.92954 17.5723H4.29656C3.87467 17.5723 3.53125 17.9157 3.53125 18.3376V19.4377C3.53125 19.8596 3.87467 20.203 4.29656 20.203H5.92954C6.35142 20.203 6.69484 19.8596 6.69484 19.4377V18.3376C6.69484 17.9157 6.35142 17.5723 5.92954 17.5723ZM5.92954 19.4377H4.29656V18.3376H5.92954V19.4377Z" fill="#393B44"/>
</g>
<defs>
<clipPath id="clip0_1165_20167">
<rect width="24" height="24" fill="white"/>
</clipPath>
</defs>
</svg>
