<svg width="257" height="42" viewBox="0 0 257 42" fill="none" xmlns="http://www.w3.org/2000/svg">
<path d="M4.8981 14.3431C16.7809 15.855 19.2079 21.6574 19.0597 25.4734C18.9316 29.3779 15.5994 32.3334 11.3021 32.3334C4.76994 32.3334 0 29.1406 0 20.1013C0 11.0619 4.34141 7.86922 10.2287 7.86922C14.5902 7.86922 18.1346 9.63849 19.6605 14.3391H4.8981V14.3431ZM4.017 14.882C3.67257 16.414 3.50036 18.0103 3.50036 20.1013C3.50036 28.3203 6.55216 31.6659 11.3021 31.6659C15.1268 31.6659 18.1546 29.0562 18.3508 25.5619C18.5871 21.1387 15.1509 16.1325 4.02101 14.882H4.017ZM4.29735 13.6515H16.072C15.1268 11.0861 13.3206 8.53672 10.2287 8.53672C7.13689 8.53672 5.20248 11.0378 4.29735 13.6515Z" fill="white"/>
<path d="M20.2572 41.996V41.7788L19.8687 40.8098L32.7608 21.4845L35.1878 24.9145C36.8218 27.2025 37.9392 28.6903 37.2063 31.4085C37.0141 32.1001 37.723 32.3374 38.6041 32.3374C39.5693 32.3374 40.7748 32.0358 41.3315 31.6699L33.1653 20.9055L46.1254 1.51192L48.3162 0.217137V0H42.0003V0.217137L42.3888 1.18621L31.0026 18.2275L28.7878 15.0549C27.2419 12.8955 26.0604 11.3233 26.7253 8.30349C26.8534 7.76467 26.3168 7.57166 25.5879 7.57166C24.5786 7.57166 23.2009 7.93758 22.6442 8.32762L30.6141 18.8105L16.1521 40.468L13.9374 41.7829V42H20.2532L20.2572 41.996Z" fill="white"/>
<path d="M59.2738 27.4397C59.9827 27.4397 60.9078 27.6327 61.5086 27.87C60.4352 30.2223 58.0723 32.3374 54.1154 32.3374C48.3121 32.3374 43.9507 29.1246 43.9507 20.0852C43.9507 11.0459 48.3122 7.87324 54.1995 7.87324C58.0683 7.87324 58.7532 9.25247 61.5486 9.27659C61.5486 10.7443 60.5194 13.5027 59.6142 13.0081C58.0883 11.7335 57.5316 8.54074 54.1995 8.54074C49.9462 8.54074 47.4511 12.984 47.4511 20.0812C47.4511 27.9142 50.1144 31.6659 54.1114 31.6659C57.2913 31.6659 59.0976 30.1338 58.3446 28.1716C58.1284 27.6327 58.601 27.4397 59.2698 27.4397H59.2738Z" fill="white"/>
<path d="M69.0259 0.257348V30.1137L70.2074 31.4528V31.6699H64.4923V31.4528L65.6738 30.1137V2.45687L64.4923 1.5079V1.29076L69.0259 0.257348Z" fill="white"/>
<path d="M90.7089 9.87573L89.5275 8.53672V8.31958H95.2426V8.53672L94.0611 9.87573V30.1137L95.2426 31.4528V31.6699H90.7089V26.8808C89.8078 29.9247 87.3367 32.0599 83.8764 32.1444C79.6432 32.2529 75.8184 29.7921 75.8184 23.3624V9.87573L74.6369 8.53672V8.31958H80.352V8.53672L79.1706 9.87573V22.9482C79.1706 28.8149 80.8046 31.493 84.5853 31.2959C87.9375 31.1029 90.7089 27.1542 90.7089 22.3209V9.87171V9.87573Z" fill="white"/>
<path d="M118.179 25.9278C118.179 30.4797 113.966 32.4017 109.432 32.3334C103.437 32.269 99.9565 28.449 99.9565 24.2229C100.557 23.9856 101.482 23.7926 102.191 23.7926C102.856 23.7926 103.329 23.9856 103.116 24.5245C101.679 28.0188 103.889 31.6659 109.304 31.6659C112.484 31.6659 114.955 29.5749 114.783 26.2093C114.418 19.4579 99.7642 20.7929 99.8483 13.0282C99.8924 9.42537 103.761 7.76467 108.487 7.89335C112.764 8.00191 113.666 9.27257 116.457 9.2967C116.457 10.7644 115.404 13.5269 114.543 13.0081C113.017 11.7576 112.072 8.75787 108.483 8.56486C105.259 8.39196 103.024 10.2055 103.261 13.0323C103.689 18.2958 118.171 17.1297 118.171 25.9318L118.179 25.9278Z" fill="white"/>
<path d="M122.733 31.4487L123.914 30.1097V10.5231L122.733 9.57415V9.35701L127.266 8.3236V30.1137L128.468 31.4528V31.6699H122.733V31.4487ZM123.786 1.93815C123.786 1.00929 124.603 0.257348 125.612 0.257348C126.622 0.257348 127.459 1.01331 127.459 1.93815C127.459 2.863 126.622 3.64308 125.612 3.64308C124.603 3.64308 123.786 2.86702 123.786 1.93815Z" fill="white"/>
<path d="M145.037 28.3445L146.39 31.6659H142.782L134.059 10.113L132.169 8.53672V8.31958H138.1V8.53672L137.539 9.87573L144.672 27.4357L148.649 17.556C150.175 13.3258 152.886 3.69536 151.985 1.4315C151.621 0.546864 152.674 0.26539 153.876 0.26539C154.777 0.26539 155.766 0.438296 156.263 0.631307L145.041 28.3405L145.037 28.3445Z" fill="white"/>
<path d="M160.568 14.3431C172.451 15.855 174.878 21.6574 174.73 25.4734C174.601 29.3779 171.269 32.3334 166.972 32.3334C160.44 32.3334 155.67 29.1406 155.67 20.1013C155.67 11.0619 160.011 7.86922 165.899 7.86922C170.26 7.86922 173.804 9.63849 175.33 14.3391H160.568V14.3431ZM159.687 14.882C159.342 16.414 159.17 18.0103 159.17 20.1013C159.17 28.3203 162.222 31.6659 166.972 31.6659C170.797 31.6659 173.824 29.0562 174.021 25.5619C174.257 21.1387 170.821 16.1325 159.691 14.882H159.687ZM159.967 13.6515H171.742C170.797 11.0861 168.99 8.53672 165.899 8.53672C162.807 8.53672 160.872 11.0378 159.967 13.6515Z" fill="white"/>
<path d="M207.474 9.87573L206.293 8.53672V8.31958H212.008V8.53672L210.826 9.87573V30.1137L212.008 31.4528V31.6699H207.474V26.8808C206.573 29.9247 204.102 32.0599 200.642 32.1444C196.409 32.2529 192.584 29.7921 192.584 23.3624V9.87975L191.402 8.54074V8.3236H197.117V8.54074L195.936 9.87975V22.9522C195.936 28.819 197.57 31.497 201.351 31.2999C204.703 31.1069 207.474 27.1583 207.474 22.3249V9.87573Z" fill="white"/>
<path d="M234.268 25.9278C234.268 30.4797 230.054 32.4017 225.521 32.3334C219.525 32.269 216.045 28.449 216.045 24.2229C216.646 23.9856 217.571 23.7926 218.28 23.7926C218.945 23.7926 219.417 23.9856 219.205 24.5245C217.767 28.0188 219.978 31.6659 225.393 31.6659C228.573 31.6659 231.044 29.5749 230.871 26.2093C230.507 19.4579 215.853 20.7929 215.937 13.0282C215.981 9.42537 219.85 7.76467 224.576 7.89335C228.853 8.00191 229.754 9.27257 232.546 9.2967C232.546 10.7644 231.492 13.5269 230.631 13.0081C229.105 11.7576 228.16 8.75787 224.572 8.56486C221.348 8.39196 219.113 10.2055 219.349 13.0323C219.778 18.2958 234.26 17.1297 234.26 25.9318L234.268 25.9278Z" fill="white"/>
<path d="M242.238 14.3431C254.12 15.855 256.547 21.6574 256.399 25.4734C256.271 29.3779 252.939 32.3334 248.642 32.3334C242.109 32.3334 237.34 29.1406 237.34 20.1013C237.34 11.0619 241.681 7.86922 247.568 7.86922C251.93 7.86922 255.474 9.63849 257 14.3391H242.238V14.3431ZM241.357 14.882C241.012 16.414 240.84 18.0103 240.84 20.1013C240.84 28.3203 243.892 31.6659 248.642 31.6659C252.466 31.6659 255.494 29.0562 255.69 25.5619C255.927 21.1387 252.49 16.1325 241.361 14.882H241.357ZM241.633 13.6515H253.408C252.462 11.0861 250.656 8.53672 247.564 8.53672C244.472 8.53672 242.538 11.0378 241.633 13.6515Z" fill="white"/>
</svg>
