<svg width="146" height="146" viewBox="0 0 146 146" fill="none" xmlns="http://www.w3.org/2000/svg">
<circle cx="72.9055" cy="72.9055" r="72.9055" fill="#383838"/>
<g clip-path="url(#clip0_4023_2127)">
<path d="M48.7959 43.1389C77.0688 46.7425 82.8483 60.5846 82.4887 69.692C82.1831 79.005 74.2554 86.0557 64.0311 86.0557C48.4902 86.0557 37.1379 78.4416 37.1379 56.8782C37.1379 35.3147 47.4656 27.7007 61.4739 27.7007C71.8555 27.7007 80.2911 31.9213 83.9179 43.1389H48.7959ZM46.6971 44.4266C45.8791 48.0793 45.4702 51.8886 45.4702 56.8827C45.4702 76.4878 52.7283 84.464 64.0311 84.464C73.1319 84.464 80.3405 78.236 80.7989 69.9021C81.3607 59.3506 73.1813 47.4132 46.6971 44.4266ZM47.3622 41.4936H75.3789C73.1274 35.3684 68.8354 29.2968 61.4739 29.2968C54.1125 29.2968 49.5104 35.2656 47.3622 41.4936Z" fill="#F9F8F6"/>
<path d="M95.4949 65.2799L92.6815 62.0921V61.578H106.281V62.0921L103.468 65.2799V113.553L106.281 116.741V117.255H95.4949V105.832C93.3467 113.088 87.4683 118.18 79.2349 118.386C69.1635 118.641 60.0627 112.775 60.0627 97.4395V65.2754L57.2494 62.0876V61.5735H70.8488V62.0876L68.0354 65.2754V96.4604C68.0354 110.459 71.9229 116.839 80.9202 116.374C88.8974 115.909 95.4904 106.493 95.4904 94.9671V65.2754L95.4949 65.2799Z" fill="#F9F8F6"/>
</g>
<defs>
<clipPath id="clip0_4023_2127">
<rect width="69.1475" height="90.6935" fill="white" transform="translate(37.1378 27.7002)"/>
</clipPath>
</defs>
</svg>
