<svg width="20" height="20" viewBox="0 0 20 20" fill="none" xmlns="http://www.w3.org/2000/svg">
<path d="M13.3333 4.16667C13.7936 4.16667 14.1667 3.79357 14.1667 3.33333C14.1667 2.8731 13.7936 2.5 13.3333 2.5C12.8731 2.5 12.5 2.8731 12.5 3.33333C12.5 3.79357 12.8731 4.16667 13.3333 4.16667Z" stroke="#5F5F5F" stroke-width="1.25" stroke-linecap="round" stroke-linejoin="round"/>
<path d="M15.0007 15.8333L15.834 10L10.834 10.8333" stroke="#5F5F5F" stroke-width="1.25" stroke-linecap="round" stroke-linejoin="round"/>
<path d="M4.16602 6.66675L6.66602 4.16675L11.2493 6.66675L9.28268 9.58341" stroke="#5F5F5F" stroke-width="1.25" stroke-linecap="round" stroke-linejoin="round"/>
<path d="M3.53357 12.0833C3.29844 12.8525 3.29097 13.6733 3.51208 14.4467C3.73319 15.22 4.17342 15.9129 4.77963 16.4415C5.38584 16.9702 6.13212 17.3121 6.92837 17.426C7.72462 17.5399 8.53682 17.4208 9.2669 17.0833" stroke="#5F5F5F" stroke-width="1.25" stroke-linecap="round" stroke-linejoin="round"/>
<path d="M11.4658 14.5834C11.7009 13.8142 11.7084 12.9934 11.4872 12.22C11.2661 11.4467 10.8259 10.7538 10.2197 10.2251C9.61348 9.69647 8.86721 9.35457 8.07096 9.2407C7.2747 9.12683 6.46251 9.24586 5.73242 9.58344" stroke="#5F5F5F" stroke-width="1.25" stroke-linecap="round" stroke-linejoin="round"/>
</svg>
