<svg width="20" height="20" viewBox="0 0 20 20" fill="none" xmlns="http://www.w3.org/2000/svg">
<path d="M10 0C4.48421 0 0 4.48421 0 10C0 15.5158 4.48421 20 10 20C15.5158 20 20 15.5158 20 10C20 4.48421 15.5158 0 10 0ZM16.4632 15.3474L14.5895 13.4737C14.3368 13.9368 14.0211 14.3579 13.6211 14.7579L15.3474 16.4842C13.8316 17.7263 11.9368 18.4211 10 18.4211C5.36842 18.4 1.6 14.6316 1.6 10C1.6 8.06316 2.29474 6.16842 3.53684 4.65263L5.64211 6.75789C5.81053 6.50526 5.97895 6.27368 6.21053 6.04211C6.37895 5.87368 6.54737 5.72632 6.73684 5.6L4.67368 3.53684C6.18947 2.29474 8.08421 1.6 10.0211 1.6C14.6316 1.6 18.4 5.36842 18.4 10C18.4 11.9368 17.7263 13.8316 16.4632 15.3474Z" fill="#5F5F5F"/>
<path d="M9.41009 10.1684C9.41009 9.76843 9.0943 9.45264 8.6943 9.45264C8.2943 9.45264 7.97852 9.76843 7.97852 10.1684C7.97852 10.5684 8.2943 10.8842 8.6943 10.8842C9.0943 10.8842 9.41009 10.5474 9.41009 10.1684Z" fill="#5F5F5F"/>
<path d="M11.3056 9.45264C10.9056 9.45264 10.5898 9.76843 10.5898 10.1684C10.5898 10.5684 10.9056 10.8842 11.3056 10.8842C11.7056 10.8842 12.0214 10.5684 12.0214 10.1684C12.0214 9.76843 11.7056 9.45264 11.3056 9.45264Z" fill="#5F5F5F"/>
<path d="M9.99961 11.3684C9.34698 11.3684 8.73645 11.6842 8.42066 12.1684C8.3575 12.2737 8.33645 12.3789 8.3575 12.5053C8.37856 12.6316 8.46277 12.7158 8.54698 12.7789C8.65224 12.8421 8.7575 12.8631 8.88382 12.8421C9.01014 12.821 9.09435 12.7579 9.1575 12.6526C9.30487 12.4 9.62066 12.2526 9.97856 12.2526C10.3365 12.2526 10.6522 12.4 10.8207 12.6526C10.947 12.8421 11.2207 12.9053 11.4312 12.7789C11.5365 12.7158 11.5996 12.6105 11.6207 12.5053C11.6417 12.3789 11.6207 12.2737 11.5575 12.1684C11.2628 11.6631 10.6733 11.3684 9.99961 11.3684Z" fill="#5F5F5F"/>
<path d="M14.5054 9.20009C14.3791 9.09482 14.2527 9.01061 14.1054 8.96851C14.0212 8.42114 13.7896 7.51588 13.0738 6.77903C12.4212 6.10535 11.5159 5.74745 10.4001 5.6843C10.4212 5.49482 10.5264 5.26324 10.9054 5.09482C11.158 4.96851 11.2843 4.67377 11.158 4.40009C11.0317 4.14745 10.7369 4.02114 10.4633 4.14745C9.51589 4.56851 9.34747 5.2843 9.34747 5.70535C8.358 5.81061 7.53694 6.16851 6.94747 6.80009C6.23168 7.53693 6.0001 8.44219 5.91589 8.98956C5.76852 9.03167 5.62116 9.11588 5.51589 9.22114C5.2001 9.49482 5.05273 9.93693 5.05273 10.5475C5.05273 11.3264 5.36852 11.8106 5.958 11.979C6.16852 13.0106 6.86326 13.958 7.958 14.7369C8.50537 15.1369 9.2001 15.3264 10.0001 15.3264C10.8001 15.3264 11.4948 15.1369 12.0422 14.7369C13.158 13.958 13.8527 13.0106 14.0422 11.979C14.6527 11.8106 14.9475 11.3264 14.9475 10.5475C14.9685 9.91588 14.8212 9.47377 14.5054 9.20009ZM13.6212 10.9896C13.3264 11.0106 13.0948 11.2422 13.0738 11.5369C12.9896 12.4001 12.4422 13.179 11.4527 13.8738C11.0738 14.1475 10.5896 14.2738 10.0001 14.2738C9.41063 14.2738 8.94747 14.1475 8.54747 13.8738C7.558 13.179 7.01063 12.4001 6.92642 11.5369C6.90537 11.2422 6.67379 11.0106 6.37905 10.9685C6.14747 10.9475 6.06326 10.9475 6.06326 10.5053C6.06326 10.0632 6.16852 9.95798 6.18958 9.93693C6.21063 9.91588 6.25273 9.91588 6.27379 9.91588C6.29484 9.91588 6.31589 9.91588 6.33694 9.91588C6.48431 9.93693 6.63168 9.87377 6.73694 9.78956C6.84221 9.6843 6.90537 9.55798 6.90537 9.38956C6.90537 9.36851 6.90537 8.23167 7.68431 7.45272C8.21063 6.9264 8.98958 6.65272 10.0001 6.65272C11.0106 6.65272 11.7896 6.9264 12.3159 7.45272C13.0948 8.23167 13.0948 9.36851 13.0948 9.38956C13.0948 9.53693 13.158 9.6843 13.2633 9.78956C13.3685 9.89482 13.5159 9.93693 13.6633 9.91588C13.7054 9.91588 13.7685 9.91588 13.8106 9.93693C13.8317 9.95798 13.9369 10.0632 13.9369 10.5053C13.9159 10.9685 13.8527 10.9685 13.6212 10.9896Z" fill="#5F5F5F"/>
</svg>
