<svg width="18" height="18" viewBox="0 0 18 18" fill="none" xmlns="http://www.w3.org/2000/svg">
<path d="M1.96875 14.0625H16.0312V12.375H1.96875V14.0625ZM16.3125 14.3438V16.0312H18V14.3438H16.3125ZM16.0312 16.3125H1.96875V18H16.0312V16.3125ZM1.6875 16.0312V14.3438H0V16.0312H1.6875ZM1.96875 16.3125C1.81342 16.3125 1.6875 16.1866 1.6875 16.0312H0C0 17.1186 0.881438 18 1.96875 18V16.3125ZM16.3125 16.0312C16.3125 16.1866 16.1866 16.3125 16.0312 16.3125V18C17.1186 18 18 17.1186 18 16.0312H16.3125ZM16.0312 14.0625C16.1866 14.0625 16.3125 14.1884 16.3125 14.3438H18C18 13.2564 17.1186 12.375 16.0312 12.375V14.0625ZM1.96875 12.375C0.881438 12.375 0 13.2564 0 14.3438H1.6875C1.6875 14.1884 1.81342 14.0625 1.96875 14.0625V12.375Z" fill="#1C1C1C"/>
<path d="M15.1875 12.6562C15.1875 13.1222 15.5653 13.5 16.0312 13.5C16.4972 13.5 16.875 13.1222 16.875 12.6562H15.1875ZM1.125 12.6562C1.125 13.1222 1.50276 13.5 1.96875 13.5C2.43474 13.5 2.8125 13.1222 2.8125 12.6562H1.125ZM15.1875 10.125V12.6562H16.875V10.125H15.1875ZM2.8125 12.6562V10.125H1.125V12.6562H2.8125ZM9 3.9375C12.4173 3.9375 15.1875 6.70773 15.1875 10.125H16.875C16.875 5.77576 13.3492 2.25 9 2.25V3.9375ZM9 2.25C4.65076 2.25 1.125 5.77576 1.125 10.125H2.8125C2.8125 6.70773 5.58273 3.9375 9 3.9375V2.25Z" fill="#1C1C1C"/>
<path d="M9 1.125V2.25C9.62134 2.25 10.125 1.74632 10.125 1.125H9ZM9 1.125H7.875C7.875 1.74632 8.37866 2.25 9 2.25V1.125ZM9 1.125V0C8.37866 0 7.875 0.503685 7.875 1.125H9ZM9 1.125H10.125C10.125 0.503685 9.62134 0 9 0V1.125Z" fill="#1C1C1C"/>
</svg>
