<svg width="20" height="20" viewBox="0 0 20 20" fill="none" xmlns="http://www.w3.org/2000/svg">
<path d="M2.67241 1.5H17.3276M2.67241 1.5V11.4655C2.67241 12.0874 2.67241 13.8103 2.67241 13.8103C2.67241 13.8103 4.39535 13.8103 5.01724 13.8103H7.65517M2.67241 1.5H1.5M17.3276 1.5V11.4655C17.3276 12.0874 17.3276 13.8103 17.3276 13.8103C17.3276 13.8103 15.6046 13.8103 14.9828 13.8103H12.3448M17.3276 1.5H18.5M7.65517 13.8103L6.18966 18.5M7.65517 13.8103H12.3448M12.3448 13.8103L13.8103 18.5" stroke="#5F5F5F" stroke-width="1.5" stroke-linecap="square"/>
<path d="M6.18945 10.2932L8.82738 7.36216L11.1722 10.2932L13.8101 5.01733" stroke="#5F5F5F" stroke-width="1.5" stroke-linecap="square" stroke-linejoin="round"/>
</svg>
