<svg width="20" height="19" viewBox="0 0 20 19" fill="none" xmlns="http://www.w3.org/2000/svg">
<g clip-path="url(#clip0_1165_20570)">
<path d="M14.9431 17.8C13.8103 17.8 13.2559 17.5724 12.6724 17.3312C12.0462 17.0752 11.3405 16.7808 9.99854 16.7808C8.65654 16.7808 7.94963 17.0727 7.32463 17.3312C6.73744 17.5724 6.18554 17.8 5.05396 17.8C3.92115 17.8 3.37047 17.5724 2.78328 17.3312C2.15702 17.0752 1.45138 16.7808 0.109375 16.7808V17.8C1.24218 17.8 1.79663 18.0277 2.38005 18.2689C3.00631 18.5249 3.71196 18.8193 5.05396 18.8193C6.39596 18.8193 7.10286 18.5274 7.72786 18.2689C8.31505 18.0277 8.86696 17.8 9.99854 17.8C11.1313 17.8 11.6858 18.0277 12.2692 18.2689C12.8955 18.5249 13.6011 18.8193 14.9431 18.8193C16.2851 18.8193 16.992 18.5274 17.617 18.2689C18.2042 18.0277 18.7561 17.8 19.8877 17.8V16.7808C18.5457 16.7808 17.8388 17.0727 17.2138 17.3312C16.6266 17.5724 16.0747 17.8 14.9431 17.8Z" fill="#5F5F5F" stroke="#5F5F5F" stroke-width="0.3"/>
<path d="M17.2157 9.99115C16.6991 10.2039 16.2064 10.4055 15.3193 10.4501V3.06888C15.3193 1.97293 16.2291 1.07983 17.3455 1.07983V0.0605469C15.6557 0.0605469 14.281 1.41009 14.281 3.06888V4.44689H10.5939V3.06888C10.5939 1.97293 11.5036 1.07983 12.6201 1.07983V0.0605469C10.9303 0.0605469 9.55555 1.41009 9.55555 3.06888V9.45288C8.49455 9.50978 7.87461 9.76336 7.32268 9.99096C6.73549 10.2322 6.18358 10.4598 5.052 10.4598C3.9192 10.4598 3.36852 10.2322 2.78132 9.99096C2.15507 9.73491 1.44942 9.4405 0.107422 9.4405V10.4598C1.24023 10.4598 1.79468 10.6874 2.3781 10.9286C3.00436 11.1847 3.71 11.4791 5.052 11.4791C6.394 11.4791 7.1009 11.1871 7.7259 10.9286C8.3131 10.6874 8.865 10.4598 9.99658 10.4598C11.1294 10.4598 11.6838 10.6874 12.2673 10.9286C12.8935 11.1847 13.5992 11.4791 14.9412 11.4791C16.2832 11.4791 16.9901 11.1871 17.6151 10.9286C18.2023 10.6874 18.7542 10.4598 19.8857 10.4598V9.4405C18.5437 9.4405 17.8368 9.73243 17.2118 9.99096L17.2157 9.99115ZM14.2835 5.4663V7.14118H10.5964V5.4663H14.2835ZM10.5964 9.46168V8.16037H14.2835V10.4315C13.5703 10.3622 13.1318 10.1816 12.6744 9.99112C12.1489 9.77588 11.5642 9.53468 10.5964 9.46168Z" fill="#5F5F5F" stroke="#5F5F5F" stroke-width="0.3"/>
<path d="M14.9431 14.1301C13.8103 14.1301 13.2559 13.9025 12.6724 13.6613C12.0462 13.4052 11.3405 13.1108 9.99854 13.1108C8.65654 13.1108 7.94963 13.4028 7.32463 13.6613C6.73744 13.9025 6.18554 14.1301 5.05396 14.1301C3.92115 14.1301 3.37047 13.9025 2.78328 13.6613C2.15702 13.4052 1.45138 13.1108 0.109375 13.1108V14.1301C1.24218 14.1301 1.79663 14.3577 2.38005 14.599C3.00631 14.855 3.71196 15.1494 5.05396 15.1494C6.39596 15.1494 7.10286 14.8575 7.72786 14.599C8.31505 14.3577 8.86696 14.1301 9.99854 14.1301C11.1313 14.1301 11.6858 14.3577 12.2692 14.599C12.8955 14.855 13.6011 15.1494 14.9431 15.1494C16.2851 15.1494 16.992 14.8575 17.617 14.599C18.2042 14.3577 18.7561 14.1301 19.8877 14.1301V13.1108C18.5457 13.1108 17.8388 13.4028 17.2138 13.6613C16.6266 13.9025 16.0747 14.1301 14.9431 14.1301Z" fill="#5F5F5F" stroke="#5F5F5F" stroke-width="0.3"/>
</g>
<defs>
<clipPath id="clip0_1165_20570">
<rect width="20" height="19" fill="white"/>
</clipPath>
</defs>
</svg>
