<svg width="20" height="20" viewBox="0 0 20 20" fill="none" xmlns="http://www.w3.org/2000/svg">
<path d="M9.16742 16.6667C7.70414 16.6712 6.29263 16.1255 5.21285 15.1379C4.13307 14.1504 3.46389 12.793 3.33804 11.3352C3.21218 9.8773 3.63883 8.42538 4.53338 7.26737C5.42793 6.10935 6.72503 5.32983 8.16742 5.08341C12.9174 4.16675 14.1674 3.73341 15.8341 1.66675C16.6674 3.33341 17.5008 5.15008 17.5008 8.33341C17.5008 12.9167 13.5174 16.6667 9.16742 16.6667Z" stroke="#5F5F5F" stroke-width="1.5" stroke-linecap="round" stroke-linejoin="round"/>
<path d="M1.66602 17.5C1.66602 15 3.20768 13.0333 5.89935 12.5C7.91602 12.1 9.99935 10.8333 10.8327 10" stroke="#5F5F5F" stroke-width="1.5" stroke-linecap="round" stroke-linejoin="round"/>
</svg>
