<svg width="20" height="20" viewBox="0 0 20 20" fill="none" xmlns="http://www.w3.org/2000/svg">
<path d="M11.6673 17.4999V14.9999C11.6673 14.5579 11.4917 14.134 11.1792 13.8214C10.8666 13.5088 10.4427 13.3333 10.0007 13.3333C9.55862 13.3333 9.1347 13.5088 8.82214 13.8214C8.50958 14.134 8.33398 14.5579 8.33398 14.9999V17.4999" stroke="#1C1C1C" stroke-width="1.5" stroke-linecap="round" stroke-linejoin="round"/>
<path d="M15 4.16675V17.5001" stroke="#1C1C1C" stroke-width="1.5" stroke-linecap="round" stroke-linejoin="round"/>
<path d="M3.33398 4.99988L9.25565 1.84155C9.48698 1.72595 9.74204 1.66577 10.0007 1.66577C10.2593 1.66577 10.5143 1.72595 10.7457 1.84155L16.6673 4.99988" stroke="#1C1C1C" stroke-width="1.5" stroke-linecap="round" stroke-linejoin="round"/>
<path d="M4.99935 9.16675L2.06602 10.9559C1.94389 11.0303 1.84295 11.1348 1.7729 11.2594C1.70285 11.384 1.66604 11.5246 1.66602 11.6676V15.8334C1.66602 16.2754 1.84161 16.6994 2.15417 17.0119C2.46673 17.3245 2.89065 17.5001 3.33268 17.5001H16.666C17.108 17.5001 17.532 17.3245 17.8445 17.0119C18.1571 16.6994 18.3327 16.2754 18.3327 15.8334V11.6667C18.3325 11.5239 18.2956 11.3835 18.2256 11.259C18.1555 11.1346 18.0547 11.0302 17.9327 10.9559L14.9993 9.16675" stroke="#1C1C1C" stroke-width="1.5" stroke-linecap="round" stroke-linejoin="round"/>
<path d="M5 4.16675V17.5001" stroke="#1C1C1C" stroke-width="1.5" stroke-linecap="round" stroke-linejoin="round"/>
<path d="M10.0007 9.16659C10.9211 9.16659 11.6673 8.42039 11.6673 7.49992C11.6673 6.57944 10.9211 5.83325 10.0007 5.83325C9.08018 5.83325 8.33398 6.57944 8.33398 7.49992C8.33398 8.42039 9.08018 9.16659 10.0007 9.16659Z" stroke="#1C1C1C" stroke-width="1.5" stroke-linecap="round" stroke-linejoin="round"/>
</svg>
