<svg width="20" height="20" viewBox="0 0 20 20" fill="none" xmlns="http://www.w3.org/2000/svg">
<path d="M9.99944 18.0445C10.6701 18.0445 11.2137 17.5009 11.2137 16.8303C11.2137 16.1596 10.6701 15.616 9.99944 15.616C9.32881 15.616 8.78516 16.1596 8.78516 16.8303C8.78516 17.5009 9.32881 18.0445 9.99944 18.0445Z" fill="#1C1C1C"/>
<path d="M6.96484 12.6565C7.81679 12.0359 8.86593 11.6697 10.0006 11.6697C11.1352 11.6697 12.1843 12.0359 13.0363 12.6565" stroke="#1C1C1C" stroke-width="1.5" stroke-linecap="round" stroke-linejoin="round"/>
<path d="M15.7222 8.60673C14.0999 7.47574 12.1273 6.8125 9.99979 6.8125C7.87224 6.8125 5.89961 7.47574 4.27734 8.60673" stroke="#1C1C1C" stroke-width="1.5" stroke-linecap="round" stroke-linejoin="round"/>
<path d="M1.5 4.62154C3.9094 2.94093 6.8396 1.95532 10 1.95532C13.1604 1.95532 16.0906 2.94093 18.5 4.62154" stroke="#1C1C1C" stroke-width="1.5" stroke-linecap="round" stroke-linejoin="round"/>
</svg>
