<svg width="19" height="19" viewBox="0 0 19 19" fill="none" xmlns="http://www.w3.org/2000/svg">
<path d="M17.7502 15.4051H0.750207C0.750207 15.4051 0.75 14.8802 0.75 14.2327V10.1293C0.75 8.8342 1.79982 7.78442 3.09483 7.78442H15.4054C16.7005 7.78442 17.7502 8.8342 17.7502 10.1293V14.2327C17.7502 14.8802 17.7502 15.4051 17.7502 15.4051Z" stroke="#5F5F5F" stroke-width="1.5" stroke-linecap="square"/>
<path d="M5.14702 11.5948C5.14702 11.9185 4.88457 12.181 4.56082 12.181C4.23707 12.181 3.97461 11.9185 3.97461 11.5948C3.97461 11.271 4.23707 11.0085 4.56082 11.0085C4.88457 11.0085 5.14702 11.271 5.14702 11.5948Z" stroke="#5F5F5F" stroke-linecap="square"/>
<path d="M14.5259 11.5948C14.5259 11.9185 14.2634 12.181 13.9397 12.181C13.616 12.181 13.3535 11.9185 13.3535 11.5948C13.3535 11.271 13.616 11.0085 13.9397 11.0085C14.2634 11.0085 14.5259 11.271 14.5259 11.5948Z" stroke="#5F5F5F" stroke-linecap="square"/>
<path d="M16.5773 7.78448H1.92188L2.76774 2.70934C2.95618 1.5787 3.12945 0.75 3.12945 0.75H15.4015C15.4015 0.75 15.543 1.5787 15.7315 2.70934L16.5773 7.78448Z" stroke="#5F5F5F" stroke-width="1.5" stroke-linecap="square"/>
<path d="M3.0957 15.9915V17.7501" stroke="#5F5F5F" stroke-width="1.5" stroke-linecap="square"/>
<path d="M15.4043 15.9915V17.7501" stroke="#5F5F5F" stroke-width="1.5" stroke-linecap="square"/>
</svg>
